<?xml version="1.0" standalone="no"?>
<!DOCTYPE svg PUBLIC "-//W3C//DTD SVG 20010904//EN"
 "http://www.w3.org/TR/2001/REC-SVG-20010904/DTD/svg10.dtd">
<svg version="1.0" xmlns="http://www.w3.org/2000/svg"
 width="512.000000pt" height="512.000000pt" viewBox="0 0 512.000000 512.000000"
 preserveAspectRatio="xMidYMid meet">

<g transform="translate(0.000000,512.000000) scale(0.100000,-0.100000)"
fill="#000000" stroke="none">
<path d="M2584 5101 c-109 -18 -134 -59 -134 -219 l0 -109 -57 -22 -56 -22
-87 86 c-86 84 -88 85 -137 85 -61 0 -94 -22 -201 -133 -130 -135 -131 -177
-7 -306 l82 -86 -21 -52 -21 -53 -105 0 c-157 -1 -206 -28 -219 -125 l-6 -40
-560 -5 c-308 -3 -562 -7 -565 -8 -24 -12 -466 -465 -476 -489 -12 -27 -14
-217 -14 -1148 0 -1075 1 -1117 19 -1153 23 -46 46 -67 94 -87 31 -13 116 -15
602 -15 l565 0 0 -54 c0 -47 4 -57 26 -75 62 -49 124 0 124 95 l0 34 101 0
c96 0 101 -1 107 -22 3 -13 24 -59 46 -103 57 -114 170 -226 286 -282 198 -97
398 -96 598 2 288 143 430 486 327 792 -74 221 -259 389 -480 438 l-75 17 0
187 c0 169 -2 190 -18 204 -27 24 -85 22 -108 -4 -17 -19 -19 -41 -22 -204
l-3 -184 -55 -11 c-126 -26 -225 -80 -327 -179 -118 -113 -183 -251 -195 -411
l-7 -85 -725 0 -725 0 -3 1095 -2 1095 202 202 203 203 527 0 527 0 6 -37 c9
-60 37 -106 75 -125 27 -14 60 -18 145 -18 l110 0 20 -53 21 -52 -77 -81
c-131 -139 -128 -183 22 -333 108 -109 157 -133 219 -108 l39 15 3 -228 c3
-208 5 -230 22 -249 13 -14 31 -21 57 -21 68 0 69 4 69 342 0 174 4 298 9 298
5 0 30 -9 55 -20 l46 -19 0 -108 c0 -125 14 -165 70 -198 31 -18 52 -20 180
-20 127 0 149 2 179 20 57 34 71 73 71 200 l0 110 53 20 52 21 86 -82 c130
-123 179 -121 313 12 104 104 126 137 126 197 0 49 -1 51 -85 136 l-85 87 23
57 22 57 108 0 c159 0 205 27 217 129 l5 46 63 5 c72 6 92 22 92 76 0 47 -38
74 -105 74 l-52 0 -6 46 c-10 91 -68 124 -220 124 l-104 0 -21 53 -20 52 73
75 c86 88 95 104 95 163 0 51 -33 100 -131 193 -88 83 -107 94 -158 94 -55 0
-73 -11 -166 -100 l-70 -68 -52 20 -53 21 0 106 c0 129 -18 178 -73 204 -41
20 -214 30 -293 18z m185 -147 l31 -6 0 -113 c0 -145 11 -165 125 -214 148
-63 187 -56 300 58 33 34 64 61 71 61 6 0 39 -29 74 -66 l63 -65 -88 -89 -87
-89 4 -53 c7 -78 65 -207 107 -235 30 -21 46 -23 146 -23 130 0 125 4 125
-107 0 -96 3 -93 -117 -93 -113 0 -160 -14 -185 -53 -30 -47 -78 -179 -78
-212 0 -50 12 -69 96 -155 l74 -75 -70 -70 -70 -70 -83 83 c-106 105 -127 111
-249 61 -100 -40 -125 -55 -141 -83 -7 -12 -14 -75 -17 -141 l-5 -120 -97 -3
-98 -3 0 113 c0 157 -8 170 -131 225 -61 27 -110 42 -138 42 -42 1 -47 -3
-133 -86 l-88 -87 -70 69 -70 69 69 71 c37 38 76 81 85 95 24 36 20 89 -15
171 -63 152 -62 152 -224 159 l-120 5 0 95 0 95 122 5 c102 4 126 8 149 26 37
27 103 183 104 243 0 42 -4 48 -87 133 l-87 88 69 70 69 70 81 -80 c45 -43 93
-82 108 -85 43 -11 96 0 182 36 114 49 125 68 125 215 0 99 2 113 18 117 27 7
116 8 151 1z m-374 -3078 c237 -63 399 -287 381 -526 -23 -318 -318 -537 -624
-465 -235 56 -392 253 -392 494 0 228 134 415 350 488 76 26 206 31 285 9z"/>
<path d="M2595 4538 c-140 -26 -299 -147 -364 -276 -146 -289 -8 -636 295
-743 245 -87 529 30 644 265 69 140 77 299 21 429 -32 74 -106 86 -140 25 -13
-23 -13 -33 5 -89 59 -195 -19 -385 -194 -471 -61 -30 -74 -33 -162 -33 -82 0
-103 4 -152 27 -177 83 -265 274 -209 454 61 199 255 309 454 259 81 -20 112
-15 132 24 22 43 4 85 -44 104 -84 34 -190 43 -286 25z"/>
<path d="M2616 4235 c-85 -30 -145 -119 -146 -216 -1 -203 241 -306 389 -166
95 90 96 233 3 326 -69 68 -156 88 -246 56z m139 -160 c50 -49 17 -135 -53
-135 -48 0 -82 32 -82 77 0 44 37 83 80 83 19 0 40 -9 55 -25z"/>
<path d="M2364 1459 l-134 -133 -93 91 c-52 52 -105 95 -121 99 -41 10 -80
-22 -84 -70 -3 -35 3 -43 118 -160 133 -136 163 -155 208 -137 43 18 339 320
348 354 10 42 -22 81 -70 85 -37 3 -43 -2 -172 -129z"/>
<path d="M4075 4038 c-46 -25 -57 -67 -31 -116 8 -15 17 -43 21 -63 3 -20 14
-44 25 -54 26 -23 74 -23 100 0 50 45 6 211 -63 234 -16 6 -30 11 -31 11 -1 0
-10 -6 -21 -12z"/>
<path d="M4084 3659 c-16 -17 -19 -37 -19 -110 0 -78 3 -91 22 -110 27 -27 75
-29 103 -4 17 16 20 31 20 112 0 80 -3 96 -20 113 -27 27 -81 26 -106 -1z"/>
<path d="M606 3379 c-33 -26 -36 -79 -6 -109 20 -20 33 -20 566 -20 365 0 552
4 565 11 48 25 44 105 -7 128 -18 8 -183 11 -558 11 -524 0 -534 0 -560 -21z"/>
<path d="M4084 3289 c-16 -17 -19 -37 -19 -110 0 -78 3 -91 22 -110 27 -27 75
-29 103 -4 17 16 20 31 20 112 0 80 -3 96 -20 113 -27 27 -81 26 -106 -1z"/>
<path d="M600 3010 c-25 -25 -26 -71 -1 -101 l19 -24 552 0 552 0 24 28 c29
34 30 56 3 91 l-20 26 -555 0 c-541 0 -554 0 -574 -20z"/>
<path d="M4084 2919 c-16 -18 -19 -37 -19 -120 l0 -99 -408 0 c-448 0 -451 0
-482 -60 -23 -45 -22 -630 1 -670 36 -60 33 -60 478 -60 l406 0 0 -75 0 -75
-395 0 c-438 0 -448 -1 -485 -62 -19 -31 -20 -50 -20 -338 0 -334 1 -338 59
-377 34 -23 34 -23 437 -23 l404 0 0 -75 0 -75 -404 0 c-403 0 -403 0 -437
-23 -51 -34 -59 -59 -59 -183 l0 -110 -30 -22 c-25 -19 -30 -30 -30 -63 0 -34
4 -42 30 -57 l30 -17 0 -115 c0 -98 3 -120 20 -148 40 -64 1 -62 960 -62 959
0 920 -2 960 62 19 31 20 50 20 336 0 335 -2 345 -63 382 -30 19 -53 20 -439
20 l-408 0 0 75 0 75 113 0 c100 0 116 2 135 20 14 14 22 33 22 55 0 22 -8 41
-22 55 -21 20 -32 20 -585 20 l-563 0 0 250 0 250 830 0 830 0 0 -250 0 -250
-118 0 c-105 0 -121 -2 -140 -20 -30 -28 -30 -82 0 -110 20 -18 35 -20 167
-20 127 0 150 3 178 20 61 37 63 47 63 383 0 300 0 304 -23 338 -13 19 -38 39
-57 46 -25 8 -152 12 -433 12 l-398 1 3 73 3 72 417 5 418 5 32 33 33 32 3
310 c2 273 1 314 -14 346 -31 64 -28 64 -484 64 l-410 0 0 100 c0 87 -3 103
-20 120 -27 27 -81 26 -106 -1z m886 -614 l0 -245 -830 0 -830 0 0 245 0 245
830 0 830 0 0 -245z m0 -1895 l0 -250 -830 0 -830 0 0 250 0 250 830 0 830 0
0 -250z"/>
<path d="M3547 2368 c-42 -33 -37 -106 9 -127 18 -8 188 -11 588 -11 555 0
564 0 590 21 34 27 36 79 4 109 -21 20 -32 20 -598 20 -445 0 -580 -3 -593
-12z"/>
<path d="M3565 481 c-49 -20 -64 -83 -30 -121 18 -20 30 -20 602 -20 570 0
583 0 603 20 27 27 26 81 -1 106 -20 18 -46 19 -588 21 -311 1 -575 -2 -586
-6z"/>
<path d="M600 2650 c-30 -30 -27 -83 6 -109 26 -21 36 -21 560 -21 375 0 540
3 558 11 51 23 55 103 7 128 -13 7 -200 11 -565 11 -533 0 -546 0 -566 -20z"/>
<path d="M606 2289 c-33 -26 -36 -79 -6 -109 20 -20 33 -20 566 -20 365 0 552
4 565 11 48 25 44 105 -7 128 -18 8 -183 11 -558 11 -524 0 -534 0 -560 -21z"/>
<path d="M600 1920 c-25 -25 -26 -71 -1 -101 l19 -24 267 0 267 0 19 24 c25
30 24 76 -1 101 -19 19 -33 20 -285 20 -252 0 -266 -1 -285 -20z"/>
<path d="M3539 1412 c-30 -25 -30 -75 0 -105 l22 -22 578 0 c555 0 580 1 600
19 27 25 28 79 1 106 -20 20 -33 20 -599 20 -548 0 -580 -1 -602 -18z"/>
<path d="M1300 930 c-17 -17 -20 -33 -20 -114 0 -90 1 -96 26 -115 31 -24 43
-26 78 -10 31 14 46 55 46 124 0 63 -16 112 -40 125 -30 16 -68 12 -90 -10z"/>
<path d="M1310 560 c-39 -39 -20 -111 45 -168 62 -55 127 -54 153 1 18 37 2
77 -38 101 -17 9 -37 30 -45 45 -23 46 -80 56 -115 21z"/>
<path d="M1670 483 c-34 -13 -50 -37 -50 -74 0 -56 25 -69 130 -69 105 0 130
13 130 69 0 59 -26 75 -119 78 -42 1 -83 0 -91 -4z"/>
<path d="M2040 483 c-34 -13 -50 -37 -50 -74 0 -56 25 -69 130 -69 105 0 130
13 130 69 0 59 -26 75 -119 78 -42 1 -83 0 -91 -4z"/>
<path d="M2410 483 c-34 -13 -50 -37 -50 -74 0 -56 25 -69 130 -69 105 0 130
13 130 69 0 59 -26 75 -119 78 -42 1 -83 0 -91 -4z"/>
<path d="M2780 483 c-34 -13 -50 -37 -50 -74 0 -56 25 -69 130 -69 105 0 130
13 130 69 0 59 -26 75 -119 78 -42 1 -83 0 -91 -4z"/>
</g>
</svg>
